<?xml version="1.0" standalone="no"?>
<!DOCTYPE svg PUBLIC "-//W3C//DTD SVG 20010904//EN"
 "http://www.w3.org/TR/2001/REC-SVG-20010904/DTD/svg10.dtd">
<svg version="1.0" xmlns="http://www.w3.org/2000/svg"
 width="1024.000000pt" height="1024.000000pt" viewBox="0 0 1024.000000 1024.000000"
 preserveAspectRatio="xMidYMid meet">

<g transform="translate(0.000000,1024.000000) scale(0.100000,-0.100000)"
fill="#000000" stroke="none">
<path d="M2356 9214 c-21 -29 -48 -87 -64 -139 -57 -175 -70 -264 -61 -420 6
-112 19 -161 72 -276 l26 -57 -42 23 c-23 12 -64 28 -91 34 -42 10 -51 10 -67
-5 -58 -52 -17 -282 77 -431 60 -94 101 -133 222 -207 l42 -26 -20 -22 c-11
-13 -37 -47 -58 -78 -20 -30 -39 -57 -42 -60 -6 -5 -50 -73 -108 -165 -52 -84
-85 -107 -244 -170 -176 -69 -274 -121 -302 -158 -19 -26 -21 -44 -24 -210 -3
-210 -3 -212 77 -272 l53 -39 -7 -89 c-3 -48 -6 -181 -6 -295 l0 -207 -34 -66
c-45 -85 -61 -157 -45 -203 14 -44 65 -95 124 -124 44 -23 50 -30 100 -135 78
-166 136 -248 270 -384 71 -72 140 -152 166 -194 58 -93 204 -242 300 -306
134 -90 249 -140 407 -178 l73 -17 -22 -32 c-62 -86 -250 -291 -320 -348 l-38
-30 -57 20 c-32 11 -79 23 -105 27 -51 8 -52 7 -60 -64 -3 -21 -12 -27 -58
-38 -32 -8 -63 -23 -74 -36 -16 -19 -29 -22 -85 -22 -62 0 -66 -2 -69 -23 -4
-29 11 -68 55 -142 l32 -55 -26 -80 c-23 -69 -27 -97 -27 -210 -1 -112 2 -140
23 -204 61 -187 250 -373 403 -398 37 -5 42 -11 95 -102 95 -160 202 -320 226
-336 24 -15 172 -65 195 -65 15 0 77 -58 69 -66 -2 -3 -66 -20 -141 -38 -89
-23 -146 -42 -165 -58 -37 -29 -46 -48 -23 -48 15 -1 62 -32 62 -43 0 -6 -65
-23 -167 -43 -60 -12 -88 -21 -80 -27 8 -6 5 -7 -8 -2 -28 9 -126 -5 -118 -18
4 -6 -3 -8 -18 -4 -27 6 -334 -45 -324 -54 3 -4 -5 -4 -17 -2 -13 2 -41 0 -63
-5 -33 -8 -35 -10 -12 -11 15 -1 27 -6 27 -12 0 -6 -9 -8 -20 -4 -11 3 -20 2
-20 -3 0 -6 -16 -6 -43 0 -27 5 -83 5 -143 0 -54 -5 -101 -8 -102 -6 -23 18
221 79 497 124 52 9 70 15 60 22 -10 7 -6 8 14 4 34 -8 208 24 200 37 -3 5 4
6 16 2 16 -5 20 -3 15 9 -4 11 -11 13 -30 6 -13 -5 -45 -12 -71 -15 -27 -4
-61 -10 -78 -15 -16 -5 -81 -17 -143 -26 -70 -11 -108 -21 -100 -26 8 -5 -3
-7 -27 -4 -29 4 -33 3 -15 -3 19 -6 11 -8 -35 -9 -85 -1 -242 -29 -292 -53
-81 -39 -103 -109 -104 -323 -1 -293 41 -396 176 -430 66 -17 1155 -154 2430
-305 187 -23 387 -47 445 -55 58 -8 139 -15 180 -15 68 1 174 -16 570 -92 58
-11 210 -40 338 -65 129 -24 248 -44 265 -44 40 0 356 62 662 130 127 28 271
59 320 70 50 11 187 42 305 70 118 28 301 71 405 95 534 124 803 192 831 209
50 34 79 139 72 267 -6 102 -32 162 -81 184 -18 8 -104 26 -192 40 -88 15
-162 28 -163 30 -2 2 10 10 26 19 16 8 33 23 36 33 4 10 6 86 5 169 -2 142 -1
153 19 179 53 67 7 135 -89 135 -19 0 -29 5 -29 15 0 32 -37 53 -107 60 -37 4
-124 13 -193 21 -69 8 -132 14 -140 14 -8 1 31 16 88 35 57 19 134 51 171 70
76 40 174 123 196 166 46 88 -13 168 -166 224 l-58 21 34 43 c65 82 88 189 52
244 -25 38 -87 75 -160 94 -74 19 -312 13 -415 -10 l-64 -14 6 26 c14 60 18
330 7 431 -15 124 -67 334 -110 443 -17 43 -31 79 -31 81 0 2 35 16 78 31 111
39 247 108 317 160 33 25 101 85 150 134 88 86 91 89 157 101 91 16 179 60
213 104 53 69 68 175 41 289 -7 31 -11 57 -7 57 3 0 29 -7 56 -16 78 -24 221
-21 281 5 91 41 116 80 115 185 0 83 -19 181 -62 322 l-31 102 41 61 c54 78
91 158 91 194 0 41 -21 82 -87 175 l-60 83 -6 142 c-12 249 -64 522 -147 762
-44 127 -156 352 -238 475 l-69 105 61 41 c124 83 230 225 270 363 24 80 21
127 -9 156 -29 30 -20 30 -145 5 -56 -11 -104 -20 -108 -20 -3 0 12 19 35 43
173 181 263 507 222 803 -11 84 -26 121 -62 154 -23 22 -28 22 -197 4 -265
-30 -799 -206 -1117 -368 l-53 -26 -47 34 c-102 72 -417 232 -589 299 -559
219 -1214 279 -1809 166 -195 -37 -635 -173 -643 -198 -2 -5 -10 -7 -18 -4 -8
3 -20 1 -27 -4 -6 -5 -38 -20 -69 -32 -34 -14 -55 -28 -51 -34 3 -5 2 -7 -4
-4 -13 8 -84 -28 -75 -38 4 -5 1 -5 -5 -1 -18 10 -107 -36 -317 -165 -49 -30
-49 -30 -83 -12 -18 9 -33 20 -33 24 0 8 -118 89 -129 89 -5 0 -12 7 -15 16
-3 8 -10 13 -15 10 -4 -3 -16 3 -26 14 -10 11 -24 20 -31 20 -7 0 -25 11 -40
25 -14 13 -30 22 -34 20 -4 -3 -10 2 -14 10 -3 9 -12 12 -22 8 -11 -4 -15 -3
-10 5 3 6 2 13 -4 17 -5 3 -10 1 -10 -6 0 -7 -3 -9 -7 -5 -5 4 -8 13 -8 19 0
5 -6 12 -14 15 -9 3 -11 0 -7 -9 4 -8 -1 -3 -12 10 -12 15 -24 21 -32 16 -8
-5 -11 -4 -6 3 8 13 -43 41 -62 35 -7 -3 -11 1 -10 7 2 7 -4 15 -12 17 -13 4
-13 3 0 -6 11 -8 11 -11 2 -11 -7 0 -15 7 -18 15 -7 17 -102 61 -122 57 -7 -2
-11 3 -10 10 2 8 -6 12 -20 11 -13 -2 -21 1 -18 5 2 4 -4 9 -15 9 -10 1 -26 9
-34 17 -9 8 -23 12 -32 9 -11 -4 -14 -3 -9 5 4 8 2 10 -7 6 -8 -3 -21 1 -28 8
-22 21 -98 47 -160 54 l-57 7 -36 -49z m162 6 c106 -38 288 -122 375 -171 38
-22 71 -39 73 -39 3 0 59 -34 126 -75 67 -42 128 -73 135 -71 8 3 12 2 8 -3
-3 -5 30 -35 74 -65 44 -31 98 -72 121 -91 l41 -34 -30 -16 c-18 -9 -56 -15
-98 -15 -101 0 -109 -13 -24 -39 93 -28 211 -86 252 -122 44 -39 53 -36 30 10
-23 44 -71 88 -107 97 -13 3 -24 10 -24 15 0 10 84 78 152 122 27 18 48 37 48
44 0 7 6 10 13 8 6 -3 50 16 97 42 47 27 123 66 167 87 45 22 79 44 76 49 -3
6 -1 7 5 3 14 -9 165 48 155 59 -4 4 -3 5 3 2 16 -9 177 46 167 57 -4 5 -3 7
2 3 6 -3 80 12 165 34 311 80 452 100 778 106 329 7 534 -13 837 -83 288 -66
628 -199 890 -349 44 -25 95 -53 113 -61 42 -19 37 -33 -15 -52 l-40 -15 -79
52 c-143 94 -385 208 -559 264 -209 67 -607 148 -732 148 -21 0 -82 1 -136 3
-77 3 -100 0 -104 -11 -4 -11 -8 -10 -18 3 -9 13 -20 15 -46 10 -29 -5 -38
-14 -56 -53 -29 -66 -42 -117 -44 -188 -3 -91 -1 -101 28 -135 25 -30 30 -32
83 -28 66 5 179 55 283 125 65 44 127 109 127 133 0 6 18 -2 40 -20 30 -23 44
-29 56 -22 9 5 26 7 37 4 14 -3 18 -1 13 6 -4 7 -3 12 3 12 5 0 12 -4 16 -10
3 -5 12 -7 20 -3 8 3 15 0 15 -7 0 -7 7 -10 15 -6 20 7 20 -29 0 -163 -18
-116 -10 -171 28 -196 60 -39 270 -41 411 -4 39 11 76 20 81 22 6 1 31 14 56
28 l47 26 -9 -30 c-5 -16 -6 -34 -3 -38 3 -5 -2 -6 -10 -3 -9 3 -16 11 -17 18
0 6 -4 2 -8 -9 -5 -11 -4 -28 1 -38 5 -11 7 -31 4 -45 -4 -17 -3 -22 2 -14 5
7 16 10 28 6 18 -6 18 -6 -1 10 -17 15 -17 17 -2 12 9 -3 17 -1 17 4 0 5 -8
14 -17 20 -17 11 -17 11 0 6 11 -4 17 0 17 12 0 14 2 14 9 3 7 -11 13 -7 25
17 22 42 20 50 -4 22 -11 -13 -23 -20 -27 -16 -4 4 -1 11 7 17 13 8 13 10 0
20 -13 9 -12 10 3 5 11 -3 17 0 17 10 0 14 2 14 15 0 8 -8 15 -17 15 -21 0 -3
11 -18 25 -33 21 -21 24 -23 18 -7 -4 11 -13 26 -21 34 -12 13 -11 16 9 23 34
13 72 1 65 -19 -4 -9 -1 -20 6 -25 10 -6 9 -8 -4 -8 -9 0 -18 -5 -20 -10 -2
-6 -14 -12 -28 -13 -27 -1 -53 -21 -43 -31 34 -34 287 50 593 197 338 161 685
276 1014 337 61 11 135 20 167 20 50 0 59 -3 74 -26 21 -32 16 -38 -20 -24
-32 12 -84 6 -193 -21 -72 -17 -116 -38 -57 -26 l30 6 -30 -14 c-16 -7 -31 -9
-33 -4 -2 5 -10 2 -19 -6 -8 -8 -19 -12 -25 -9 -6 4 -8 2 -5 -3 4 -6 -19 -27
-51 -47 -202 -127 -265 -306 -126 -355 63 -22 74 -37 74 -98 0 -67 -17 -101
-89 -176 -87 -92 -245 -189 -324 -199 -15 -2 -29 -7 -33 -11 -4 -4 -16 -7 -26
-7 -17 0 -15 5 10 38 40 50 83 163 90 234 5 58 -4 73 -24 41 -6 -10 -44 -40
-85 -68 -41 -27 -75 -53 -77 -57 -2 -5 -8 -8 -13 -8 -6 0 -47 -22 -93 -50 -45
-27 -112 -63 -147 -78 -72 -33 -195 -66 -210 -57 -5 4 -9 1 -9 -4 0 -6 -11
-11 -25 -11 -17 0 -25 -5 -24 -17 0 -11 3 -13 6 -5 2 6 17 12 31 12 15 0 22
-4 16 -8 -7 -4 -8 -15 -3 -27 6 -16 8 -17 8 -3 1 18 41 46 41 29 0 -5 -6 -11
-12 -13 -11 -4 -23 -108 -13 -108 2 0 16 5 30 10 21 8 26 7 22 -2 -3 -7 -8
-21 -12 -30 -4 -10 -3 -18 3 -18 5 0 12 9 15 20 3 14 14 20 32 20 15 0 24 -4
20 -10 -4 -7 3 -9 19 -6 15 3 24 1 21 -5 -4 -5 -10 -7 -15 -4 -4 3 -10 -1 -13
-7 -3 -9 -9 -8 -19 5 -12 17 -16 17 -27 4 -10 -13 -9 -16 8 -22 35 -11 66 -17
88 -19 11 0 19 -5 16 -10 -4 -5 5 -6 20 -2 15 3 29 1 33 -6 5 -7 3 -8 -6 -3
-8 5 -11 4 -7 -2 10 -15 94 -53 109 -49 7 1 9 1 5 -2 -5 -2 22 -25 60 -49 37
-25 85 -62 107 -82 35 -33 146 -174 146 -186 0 -3 -19 7 -42 22 -24 14 -48 26
-55 26 -7 0 -14 6 -17 14 -3 7 -15 13 -26 13 -12 0 -18 4 -15 10 3 5 0 8 -7 5
-9 -3 16 -35 68 -88 122 -124 284 -357 248 -357 -3 0 -47 25 -98 55 -102 60
-214 115 -233 115 -7 0 -13 -4 -13 -10 0 -5 8 -7 18 -3 9 3 14 3 10 -2 -4 -4
25 -42 65 -84 39 -41 113 -117 162 -169 l90 -94 -50 20 c-27 11 -104 41 -170
66 -165 64 -170 67 -260 148 -208 185 -526 340 -808 392 -112 21 -342 38 -427
31 -161 -13 -201 -18 -300 -41 -210 -47 -402 -132 -560 -248 -79 -58 -225
-210 -293 -303 -107 -150 -192 -334 -232 -503 -10 -41 -19 -77 -21 -78 -1 -2
-24 9 -51 24 -42 26 -57 29 -128 28 -44 -1 -89 -3 -100 -5 -17 -3 -20 2 -23
36 -9 129 -69 339 -134 469 -144 290 -419 522 -738 626 -160 51 -253 64 -480
64 -184 0 -230 -3 -323 -22 -188 -39 -343 -98 -489 -185 -43 -25 -78 -43 -78
-40 0 4 35 58 77 122 55 83 106 144 180 216 57 54 103 103 103 108 0 5 -8 3
-17 -4 -16 -12 -17 -12 -6 2 7 9 10 19 6 22 -3 4 -4 7 0 7 3 0 13 -8 23 -17
17 -17 17 -17 12 5 -3 12 -2 22 4 22 5 0 7 4 4 8 -3 5 2 9 10 9 8 0 13 -6 10
-14 -8 -20 2 -15 14 7 6 11 7 20 3 19 -24 -4 -18 6 30 52 28 27 70 60 92 71
22 12 34 23 28 25 -7 3 -13 9 -13 14 0 11 23 7 32 -6 5 -6 8 -5 8 3 0 7 5 10
12 6 7 -4 8 -3 4 4 -3 6 3 16 14 22 13 7 20 7 20 0 0 -5 -5 -10 -12 -10 -6 0
-9 -3 -6 -6 3 -3 23 4 44 15 21 12 35 22 31 22 -4 1 -11 2 -16 3 -5 0 -12 4
-16 8 -4 4 10 5 31 2 21 -3 42 -10 46 -17 5 -8 8 -5 8 8 0 11 4 16 8 10 11
-15 72 -19 72 -4 0 7 10 9 25 7 45 -9 27 18 -29 46 -62 30 -211 172 -267 253
-20 29 -62 109 -94 178 -33 69 -64 125 -70 125 -15 0 -80 -63 -82 -80 -1 -8
-7 -33 -12 -55 -14 -53 -4 -143 24 -230 13 -38 22 -71 20 -73 -7 -7 -111 90
-177 165 -30 33 -78 135 -78 164 0 28 -32 62 -43 46 -6 -8 -7 -7 -4 5 3 9 2
29 -3 45 -8 27 -8 27 -9 -10 -2 -91 71 -309 140 -414 28 -44 11 -42 -42 6 -83
73 -144 226 -157 394 -4 53 -4 97 -1 97 4 0 6 27 5 60 -1 33 1 60 5 60 3 0 9
17 13 39 14 90 76 247 114 294 20 23 35 22 130 -13z m2997 -131 c11 -3 21 -13
24 -24 2 -11 8 -24 15 -28 7 -5 3 -7 -9 -5 -12 2 -20 11 -20 23 0 15 -8 21
-32 23 -27 3 -30 6 -20 17 6 7 14 9 17 5 3 -4 14 -9 25 -11z m0 -38 c-3 -10 1
-24 10 -31 8 -7 12 -17 8 -23 -4 -6 -10 -3 -15 9 -8 17 -8 17 -4 -3 2 -12 -1
-25 -8 -28 -6 -3 1 -3 17 0 23 5 27 2 27 -17 0 -21 2 -20 20 10 19 30 40 43
40 23 0 -5 12 -8 28 -5 27 5 27 4 -6 -16 -18 -11 -35 -20 -37 -20 -3 0 -27
-13 -53 -30 -63 -39 -78 -38 -86 2 -5 25 -2 36 11 45 14 11 14 13 1 13 -10 0
-14 9 -13 28 1 18 7 27 17 26 10 -1 14 4 11 12 -3 8 -9 12 -13 9 -5 -3 -11 -1
-15 5 -4 6 8 10 30 10 31 0 35 -3 30 -19z m55 15 c0 -3 -4 -8 -10 -11 -5 -3
-10 -1 -10 4 0 6 5 11 10 11 6 0 10 -2 10 -4z m4 -67 c-3 -5 -10 -7 -15 -3 -5
3 -7 10 -3 15 3 5 10 7 15 3 5 -3 7 -10 3 -15z m672 -64 c-4 -14 -2 -25 4 -25
5 0 10 5 10 12 0 7 5 5 13 -4 6 -9 21 -18 31 -20 18 -3 19 -4 3 -20 -22 -22
-24 -46 -2 -28 12 10 15 10 15 -4 0 -9 -5 -16 -11 -16 -5 0 -7 -5 -3 -11 4 -8
9 -7 15 2 6 10 13 10 34 1 34 -16 35 -15 35 8 0 12 7 20 18 20 15 0 15 -2 2
-11 -12 -8 -12 -12 -2 -16 10 -4 10 -8 0 -21 -12 -15 -11 -16 4 -3 10 7 25 10
35 7 9 -4 21 -1 26 6 6 10 7 8 4 -4 -3 -9 -1 -19 6 -22 7 -2 -4 -3 -23 0 -24
3 -29 2 -16 -4 15 -7 12 -10 -18 -19 -33 -10 -53 -1 -23 10 7 3 5 6 -5 6 -10
1 -18 -5 -18 -13 0 -8 -15 -17 -36 -20 -19 -4 -42 -10 -50 -13 -8 -3 -14 -1
-14 5 0 5 9 12 20 15 14 4 18 10 13 23 -4 11 -3 15 4 11 6 -4 17 1 24 11 12
15 12 16 -2 5 -9 -7 -18 -10 -22 -7 -3 3 -14 1 -24 -5 -10 -6 -12 -11 -5 -11
17 0 15 -20 -3 -20 -8 0 -15 4 -15 9 0 14 -33 6 -38 -8 -3 -9 2 -11 17 -6 15
5 21 2 21 -9 0 -9 -6 -16 -14 -16 -8 0 -21 -3 -29 -6 -22 -8 -46 22 -42 54 2
15 4 43 5 62 1 19 4 27 7 18 2 -10 10 -18 18 -18 20 0 26 -39 7 -50 -10 -5
-12 -10 -6 -10 20 0 32 24 27 53 -3 15 -9 27 -14 27 -13 0 -11 42 4 73 15 34
21 35 13 2z m-41 -45 c3 -5 1 -10 -4 -10 -6 0 -11 5 -11 10 0 6 2 10 4 10 3 0
8 -4 11 -10z m145 -20 c0 -5 7 -10 16 -10 9 0 14 -5 12 -11 -2 -6 -7 -10 -11
-10 -4 1 -14 1 -22 1 -8 0 -15 9 -15 20 0 11 5 20 10 20 6 0 10 -4 10 -10z
m95 -40 c3 -5 1 -10 -4 -10 -6 0 -11 5 -11 10 0 6 2 10 4 10 3 0 8 -4 11 -10z
m275 -160 c0 -5 -2 -10 -4 -10 -3 0 -8 5 -11 10 -3 6 -1 10 4 10 6 0 11 -4 11
-10z m77 -16 c-3 -3 -12 -4 -19 -1 -8 3 -5 6 6 6 11 1 17 -2 13 -5z m-50 -10
c-3 -3 -12 -4 -19 -1 -8 3 -5 6 6 6 11 1 17 -2 13 -5z m-4516 -313 c30 -10
108 -45 174 -78 66 -33 138 -66 160 -73 22 -7 45 -17 50 -22 6 -6 5 -7 -5 -4
-47 14 -110 15 -125 0 -13 -14 -15 -14 -15 0 0 9 5 16 12 16 6 0 9 3 5 6 -9 9
-48 -6 -42 -17 3 -5 -1 -6 -10 -3 -14 6 -14 8 1 18 15 11 13 14 -12 23 -54 21
-65 23 -59 13 3 -6 -1 -7 -9 -4 -9 3 -16 10 -16 15 0 12 -109 61 -121 54 -5
-4 -9 0 -10 7 0 10 -2 10 -6 0 -2 -6 -8 -10 -12 -8 -9 6 5 -107 20 -154 27
-86 132 -251 189 -297 31 -25 -4 -12 -39 14 -143 109 -231 282 -231 454 0 67
10 72 101 40z m169 -181 c0 -5 -5 -10 -11 -10 -5 0 -7 5 -4 10 3 6 8 10 11 10
2 0 4 -4 4 -10z m30 -10 c0 -5 -4 -10 -10 -10 -5 0 -10 5 -10 10 0 6 5 10 10
10 6 0 10 -4 10 -10z m18 -30 c-7 -10 -14 -17 -17 -15 -4 4 18 35 25 35 2 0
-1 -9 -8 -20z m-38 1 c0 -6 -4 -12 -8 -15 -5 -3 -9 1 -9 9 0 8 4 15 9 15 4 0
8 -4 8 -9z m400 1 c0 -4 -9 -8 -20 -8 -11 0 -20 4 -20 8 0 4 9 8 20 8 11 0 20
-4 20 -8z m37 -34 c-3 -8 -6 -5 -6 6 -1 11 2 17 5 13 3 -3 4 -12 1 -19z m-197
-18 c0 -5 -2 -10 -4 -10 -3 0 -8 5 -11 10 -3 6 -1 10 4 10 6 0 11 -4 11 -10z
m-123 -42 c-3 -8 -6 -5 -6 6 -1 11 2 17 5 13 3 -3 4 -12 1 -19z m174 2 c-26
-22 -50 -27 -29 -7 12 13 35 25 48 26 3 0 -6 -9 -19 -19z m16 -32 c-3 -8 -6
-5 -6 6 -1 11 2 17 5 13 3 -3 4 -12 1 -19z m43 9 c0 -2 -10 -12 -21 -23 -22
-19 -22 -19 -8 4 12 19 29 30 29 19z m4430 -39 c0 -21 -3 -29 -10 -22 -5 5 -7
19 -4 32 9 31 14 27 14 -10z m-30 -27 c0 -5 -7 -11 -15 -15 -15 -5 -20 5 -8
17 9 10 23 9 23 -2z m88 -9 c2 -6 -6 -10 -17 -9 -11 0 -18 4 -15 8 2 4 -2 10
-8 13 -7 2 -2 3 11 2 14 -2 27 -8 29 -14z m147 -112 c3 -5 1 -10 -4 -10 -6 0
-11 5 -11 10 0 6 2 10 4 10 3 0 8 -4 11 -10z m160 -30 c3 -6 -1 -7 -9 -4 -18
7 -21 14 -7 14 6 0 13 -4 16 -10z m-4355 -192 c0 -4 -34 -8 -75 -8 -92 0 -255
-24 -355 -51 -206 -58 -439 -176 -563 -286 -20 -18 -42 -33 -48 -33 -18 0
-288 -109 -363 -147 -37 -19 -70 -32 -72 -30 -15 15 124 88 311 162 96 37 130
57 170 94 71 67 111 94 219 150 147 76 308 124 481 146 111 14 295 16 295 3z
m3275 -78 c18 -5 -29 -8 -120 -9 -250 -2 -418 -33 -625 -113 -335 -131 -590
-361 -761 -687 -19 -36 -39 -79 -46 -95 -6 -18 -12 -24 -12 -14 -2 45 86 225
169 348 42 62 140 174 209 237 172 160 468 293 734 332 76 11 411 12 452 1z
m-3015 -204 c140 -32 305 -105 396 -176 21 -15 16 -16 -90 -12 -89 3 -129 0
-199 -17 -215 -51 -393 -181 -506 -370 -59 -97 -86 -167 -108 -271 -21 -102
-13 -306 17 -409 40 -141 127 -287 231 -388 64 -62 175 -144 183 -136 3 4 6 2
6 -4 0 -13 84 -47 160 -64 30 -8 109 -13 175 -13 140 1 211 18 295 70 31 19
59 34 64 34 11 0 -38 -82 -99 -165 -143 -194 -335 -321 -581 -386 -77 -21
-112 -24 -269 -24 -191 0 -222 5 -381 56 -83 27 -231 102 -262 133 -12 11 -11
17 5 36 21 26 111 69 159 77 47 8 42 19 -11 27 -125 19 -327 110 -399 181 -43
41 -81 121 -93 192 -11 68 56 157 181 241 l69 45 -49 13 c-71 18 -134 47 -172
79 -32 27 -40 27 -74 3 -9 -7 -20 -9 -24 -5 -10 10 -5 296 7 402 26 234 100
402 243 553 147 154 347 259 581 303 83 15 133 18 290 14 118 -2 215 -9 255
-19z m3126 -66 c314 -54 564 -184 767 -399 192 -204 257 -397 257 -765 0 -203
-14 -327 -52 -451 -24 -79 -133 -315 -147 -315 -4 0 -20 9 -35 21 -17 14 -47
23 -85 26 -54 5 -62 3 -85 -20 -14 -14 -26 -35 -26 -47 0 -25 32 -58 62 -64
13 -3 35 -7 51 -11 15 -3 27 -12 27 -19 0 -18 -107 -116 -178 -162 -430 -286
-1099 -280 -1541 13 -234 155 -396 397 -478 710 -25 99 -28 123 -28 288 0 195
9 263 56 406 137 426 472 716 914 793 125 22 380 20 521 -4z m-4607 -264 c17
-18 24 -35 24 -66 0 -52 -32 -88 -86 -97 -31 -5 -40 -1 -67 25 -48 49 -40 125
18 157 35 19 80 11 111 -19z m2107 -103 c41 -41 134 -297 134 -369 0 -48 -90
-98 -175 -97 -106 2 -187 57 -219 149 -48 141 14 271 150 314 74 24 88 24 110
3z m-592 -22 c25 -27 13 -73 -31 -122 -57 -63 -134 -75 -153 -23 -34 88 124
211 184 145z m4312 -106 c30 -21 47 -68 40 -109 -14 -76 -111 -103 -167 -47
-23 24 -29 38 -29 74 0 38 5 49 31 71 35 30 92 35 125 11z m-3106 -359 c33
-12 27 -13 -85 -18 -86 -3 -129 -9 -152 -21 -41 -22 -65 -22 -34 -1 70 50 194
68 271 40z m3441 -178 c110 -92 109 -92 125 -143 8 -27 33 -71 59 -100 30 -35
41 -55 33 -58 -8 -3 -7 -6 4 -6 9 -1 20 -5 23 -11 8 -13 -25 -1 -46 17 -9 7
-19 10 -22 7 -4 -4 -14 -1 -23 7 -16 13 -16 12 -5 -9 12 -22 11 -23 -9 -12
-13 7 -20 8 -16 2 3 -6 0 -12 -8 -14 -10 -2 1 -21 36 -58 101 -110 120 -137
112 -162 -13 -43 -65 -108 -127 -160 -105 -87 -280 -157 -436 -173 -73 -8 -71
-21 -21 114 54 149 100 454 100 671 l0 106 58 21 c31 12 64 22 73 22 8 1 49
-27 90 -61z m-3475 -164 c85 -40 106 -79 133 -247 12 -76 31 -166 41 -200 10
-34 20 -75 22 -90 3 -30 -7 -37 -157 -109 -69 -33 -145 -98 -145 -124 0 -18
-24 -18 -42 -1 -24 24 -69 50 -75 43 -3 -3 -1 -6 6 -6 6 0 11 -8 9 -17 -2 -11
2 -17 10 -15 8 1 11 -2 7 -8 -15 -24 -122 94 -169 188 -104 206 -96 348 28
480 63 67 176 123 264 131 7 0 38 -11 68 -25z m-2856 -216 c0 -39 -5 -57 -22
-75 -31 -34 -41 -29 -34 17 7 45 35 110 48 110 4 0 8 -23 8 -52z m2241 -429
c-12 -13 -21 -27 -21 -31 0 -18 -81 -117 -137 -167 -32 -29 -94 -74 -138 -100
-90 -53 -232 -118 -241 -109 -3 3 11 12 32 18 44 15 151 71 217 115 60 40 208
184 259 253 22 30 42 51 45 48 3 -2 -4 -15 -16 -27z m929 -106 c89 -146 210
-288 330 -388 224 -187 467 -298 785 -360 168 -33 505 -30 650 6 38 10 46 8
115 -32 41 -23 99 -53 128 -67 l53 -24 -25 -19 c-14 -11 -42 -27 -63 -36 -51
-21 -243 -30 -323 -14 -70 14 -269 79 -317 104 -62 32 -47 16 31 -35 55 -35
75 -53 65 -58 -8 -4 -50 -11 -95 -14 -63 -6 -103 -3 -182 14 -55 11 -109 23
-119 26 -10 3 4 -14 32 -38 27 -24 67 -60 90 -80 l40 -37 -32 -1 c-61 0 -216
58 -307 115 -49 30 -90 55 -92 55 -2 0 3 -17 10 -37 29 -83 29 -93 1 -93 -29
0 -117 41 -197 94 -76 48 -76 16 0 -66 l26 -28 -60 0 c-160 1 -324 47 -451
126 -47 30 -86 54 -87 54 -1 0 -2 -27 -1 -60 0 -76 -21 -101 -92 -107 -84 -8
-223 58 -282 133 -23 29 -31 30 -31 4 0 -30 -72 -100 -104 -100 -70 0 -158 71
-211 170 -30 57 -36 62 -41 42 -14 -48 -152 -102 -263 -102 l-66 0 44 40 c24
22 42 43 39 45 -2 3 -31 -6 -64 -19 -78 -31 -159 -48 -212 -44 l-42 3 50 60
c27 33 50 65 50 72 0 7 -21 3 -59 -12 -62 -25 -191 -45 -191 -29 0 6 12 17 28
27 15 9 43 31 62 48 l35 31 -30 -7 c-63 -17 -112 -20 -167 -13 -45 6 -71 3
-124 -13 -36 -11 -98 -24 -136 -28 l-70 -7 43 38 c33 30 51 38 79 38 95 0 303
49 451 107 223 87 464 288 581 485 l40 68 47 -52 c25 -29 60 -66 76 -81 46
-44 145 -107 169 -107 19 0 175 125 291 232 22 21 44 36 49 35 5 -2 26 -31 46
-64z m2400 -23 c-12 -17 -25 -29 -28 -26 -3 3 3 15 13 26 10 11 14 20 9 20 -5
0 -2 4 6 10 24 15 24 3 0 -30z m485 -55 c113 -56 195 -143 195 -207 0 -62
-121 -146 -252 -174 -83 -18 -216 -17 -302 1 -38 8 -71 17 -74 20 -3 3 11 19
31 36 59 49 196 218 239 297 47 85 45 85 163 27z m-3345 15 c0 -5 -4 -10 -10
-10 -5 0 -10 5 -10 10 0 6 5 10 10 10 6 0 10 -4 10 -10z m2701 -193 c-10 -9
-11 -8 -5 6 3 10 9 15 12 12 3 -3 0 -11 -7 -18z m-61 -42 c-7 -8 -17 -15 -23
-15 -6 0 -2 7 9 15 25 19 30 19 14 0z m-3670 -15 c-8 -5 -22 -9 -30 -9 -10 0
-8 3 5 9 27 12 43 12 25 0z m-80 -14 c0 -3 -4 -8 -10 -11 -5 -3 -10 -1 -10 4
0 6 5 11 10 11 6 0 10 -2 10 -4z m-33 -12 c-3 -3 -12 -4 -19 -1 -8 3 -5 6 6 6
11 1 17 -2 13 -5z m-44 -11 c-7 -2 -19 -2 -25 0 -7 3 -2 5 12 5 14 0 19 -2 13
-5z m-240 -20 c-7 -2 -19 -2 -25 0 -7 3 -2 5 12 5 14 0 19 -2 13 -5z m4171
-288 c48 -14 95 -25 104 -25 14 0 15 -2 1 -15 -8 -8 -53 -24 -99 -36 -69 -18
-103 -21 -180 -16 -99 5 -190 23 -190 37 0 5 24 16 54 24 30 9 84 29 122 45
46 20 73 26 83 20 9 -5 56 -20 105 -34z m-2968 -275 l34 -36 -75 -99 c-42 -55
-99 -135 -127 -179 l-52 -78 -23 28 c-48 60 -129 267 -135 343 l-3 34 60 -1
c60 -1 185 27 233 52 24 13 28 12 41 -8 8 -11 29 -37 47 -56z m-804 -52 c-60
-186 -94 -333 -123 -528 -14 -98 -27 -144 -28 -95 -2 127 81 515 139 651 29
66 36 48 12 -28z m1620 2 c67 -35 163 -67 231 -76 l49 -7 -34 -31 c-68 -65
-133 -121 -123 -106 6 9 3 8 -7 -2 -9 -10 -20 -18 -25 -18 -5 0 -20 -12 -34
-27 l-24 -28 25 20 25 20 -25 -28 c-13 -15 -30 -25 -38 -22 -7 2 -11 1 -8 -4
6 -9 -59 -58 -154 -117 l-54 -34 -14 27 c-8 16 -52 91 -98 168 -46 77 -95 167
-109 199 l-26 59 34 -30 c40 -35 134 -57 214 -51 40 2 54 9 86 41 34 36 41 49
38 70 -2 12 12 8 71 -23z m-1928 -64 c-8 -25 -91 -165 -110 -183 -7 -8 -11
-21 -8 -31 4 -11 3 -13 -3 -5 -6 9 -25 -4 -63 -44 -86 -88 -133 -110 -174 -80
-16 12 -12 18 49 73 59 51 99 94 256 271 32 36 64 36 53 -1z m1174 -84 c28
-51 70 -95 82 -87 5 3 7 0 4 -9 -3 -8 2 -23 12 -34 17 -21 17 -20 59 14 23 19
46 34 50 34 5 0 19 10 32 22 13 12 26 19 29 16 11 -12 -30 -51 -129 -119 -5
-3 10 -35 33 -70 43 -66 39 -91 -7 -45 -14 14 -30 26 -34 26 -5 0 -9 6 -9 14
0 27 -47 24 -74 -5 -18 -19 -22 -29 -14 -32 7 -3 -2 -6 -19 -6 -39 -1 -42 13
-10 43 58 55 70 74 56 90 -30 33 -40 46 -34 46 3 0 0 6 -7 14 -7 7 -17 13 -23
11 -5 -1 -7 0 -2 2 12 8 8 23 -7 23 -7 0 -16 14 -20 31 -14 70 -1 79 32 21z
m-628 -31 c0 -14 -120 -104 -128 -97 -8 9 14 29 74 71 56 39 54 38 54 26z
m268 -143 c12 -18 34 -45 50 -61 l29 -28 27 22 c15 12 32 33 38 48 l10 26 13
-38 c14 -42 29 -63 63 -90 l22 -19 -22 -31 c-12 -18 -54 -72 -94 -122 -39 -49
-92 -121 -118 -160 -57 -84 -45 -71 -90 -90 l-39 -16 7 43 c3 24 11 95 16 158
12 139 51 390 61 390 4 0 16 -15 27 -32z m2257 -12 l89 -22 18 -49 c9 -27 24
-55 32 -63 22 -22 60 -7 82 33 10 19 21 35 25 35 9 0 131 -39 154 -50 23 -10
70 -24 70 -21 0 2 23 -9 50 -22 28 -14 62 -29 78 -32 15 -4 27 -11 27 -16 0
-5 6 -6 13 -4 17 6 143 -59 140 -73 -2 -6 3 -9 10 -6 7 2 21 -2 32 -11 20 -15
20 -15 0 -31 l-20 -17 20 8 c37 14 65 17 65 8 0 -5 8 -10 18 -10 9 1 32 0 51
-1 32 -2 33 -3 18 -20 -10 -10 -15 -21 -12 -24 3 -3 -7 -3 -22 -1 -26 4 -27 3
-9 -11 23 -19 11 -39 -20 -32 -25 7 -28 1 -25 -49 0 -12 -2 -15 -5 -6 -5 11
-8 11 -15 0 -6 -10 -9 -11 -9 -1 0 6 -4 12 -9 12 -5 0 -7 -9 -4 -20 4 -13 10
-17 17 -12 17 12 39 9 44 -7 3 -8 0 -11 -7 -7 -18 12 -13 -5 14 -40 14 -18 25
-37 25 -43 0 -6 4 -11 8 -11 5 0 9 15 9 33 0 17 -2 24 -4 14 -5 -18 -6 -17
-20 3 -8 12 -13 24 -9 27 3 3 -4 24 -16 47 -11 22 -17 38 -13 34 5 -4 14 -3
21 3 18 15 44 4 44 -18 0 -11 -3 -14 -8 -7 -8 12 -42 15 -42 3 0 -14 20 -21
21 -7 0 7 4 3 9 -10 5 -12 7 -29 4 -37 -4 -8 -1 -15 6 -15 6 0 8 4 5 10 -3 6
1 7 9 4 9 -3 16 -1 16 5 0 6 -4 11 -10 11 -5 0 -10 4 -10 8 0 4 9 8 20 8 24 0
25 -5 4 -35 -16 -22 -16 -23 6 -16 22 7 23 5 16 -26 -3 -21 -3 -29 3 -20 5 8
11 9 15 3 3 -5 -1 -12 -9 -16 -19 -7 -28 9 -20 35 5 15 4 19 -4 15 -6 -4 -11
-14 -11 -22 0 -8 -5 -23 -12 -33 -12 -19 -13 -19 -41 5 -17 14 -36 23 -43 20
-7 -3 -15 0 -18 7 -3 9 -5 8 -5 -1 -1 -7 12 -18 28 -23 28 -10 51 -39 31 -39
-6 0 -10 5 -10 10 0 6 -5 10 -11 10 -6 0 -8 -9 -4 -20 3 -11 4 -20 1 -20 -3 0
-15 9 -26 20 -11 11 -28 20 -37 19 -16 0 -15 -2 2 -10 15 -7 12 -8 -15 -4 -32
5 -33 4 -15 -9 25 -19 42 -20 48 -3 2 6 8 8 13 4 5 -4 3 -12 -5 -16 -9 -6 -4
-10 16 -14 15 -3 30 -1 31 4 7 17 21 9 19 -11 -1 -16 -6 -18 -27 -13 -14 4
-33 7 -42 7 -9 0 -14 4 -12 8 3 4 -2 8 -10 8 -10 0 -13 -7 -11 -21 4 -21 4
-21 -15 -4 -11 10 -17 22 -13 28 3 5 1 7 -4 4 -6 -4 -23 9 -37 28 -15 19 -22
35 -17 35 6 0 11 5 11 11 0 8 -4 8 -15 -1 -11 -10 -18 -9 -30 4 -22 22 -38 20
-30 -3 4 -13 0 -23 -12 -30 -10 -6 -12 -11 -5 -11 26 0 3 -169 -34 -243 -22
-43 -65 -88 -77 -80 -6 3 -7 1 -3 -5 3 -6 2 -13 -4 -17 -5 -3 -10 -1 -10 5 0
8 -6 8 -20 0 -11 -6 -17 -16 -14 -22 4 -7 3 -8 -4 -4 -7 4 -12 2 -12 -5 0 -7
-10 -9 -25 -7 -14 3 -28 1 -31 -3 -3 -5 -12 -9 -20 -9 -8 0 -12 5 -9 10 3 6
-1 10 -9 10 -8 0 -16 8 -18 18 -3 14 -5 13 -10 -6 -3 -12 -2 -20 2 -17 5 3 11
1 15 -5 8 -13 -11 -13 -35 0 -11 6 -18 16 -16 23 1 6 1 9 -1 5 -9 -16 -31 -7
-68 29 -54 52 -90 144 -88 221 1 12 -2 23 -6 23 -3 1 -16 3 -27 4 -12 1 -26 5
-33 9 -6 4 -11 2 -11 -4 0 -7 -7 -9 -16 -6 -11 4 -37 -14 -79 -55 -35 -34 -69
-58 -75 -54 -6 3 -9 1 -8 -7 2 -8 -29 -29 -75 -52 -68 -35 -89 -40 -163 -44
-77 -4 -87 -2 -122 20 -96 64 -132 181 -89 293 13 37 77 127 125 178 20 20 33
37 28 37 -10 0 -196 -138 -267 -198 -61 -52 -78 -88 -86 -187 -4 -49 -1 -71
17 -113 45 -105 190 -198 317 -204 29 -2 53 -6 53 -10 0 -8 -117 -48 -141 -48
-10 0 -19 3 -22 8 -2 4 -3 2 -1 -4 3 -13 -72 -38 -87 -29 -5 4 -20 0 -33 -8
-28 -19 -76 -24 -266 -33 -165 -8 -255 3 -337 41 -66 30 -91 53 -119 111 -21
43 -21 50 -9 93 9 30 29 59 55 84 22 21 40 41 40 45 0 4 78 43 173 87 94 43
214 104 266 134 100 60 284 195 384 283 76 66 195 209 259 310 48 74 50 77 76
67 15 -6 67 -21 117 -33z m-3206 7 c0 -25 -1 -26 -9 -8 -8 19 -9 19 -9 1 -1
-11 -4 -17 -7 -13 -8 8 5 47 17 47 5 0 9 -12 8 -27z m-39 -29 c0 -8 -4 -12
-10 -9 -5 3 -10 1 -10 -6 0 -7 -3 -9 -6 -6 -4 4 -1 13 6 22 16 19 20 19 20 -1z
m17 -36 c-3 -7 -5 -2 -5 12 0 14 2 19 5 13 2 -7 2 -19 0 -25z m494 -33 c-14
-36 -29 -65 -34 -65 -4 0 0 17 9 38 9 20 21 49 27 65 6 15 14 27 18 27 4 0 -5
-29 -20 -65z m-850 29 c72 -21 224 -86 330 -141 193 -98 493 -316 550 -397 16
-23 35 -48 44 -57 19 -20 19 -27 -1 -25 -9 0 -19 -5 -21 -12 -7 -19 65 -4 98
20 33 25 272 110 414 148 221 59 576 121 863 150 57 5 108 13 113 16 16 9 40
-17 60 -64 11 -24 19 -45 19 -46 0 -2 -44 -6 -97 -9 -99 -7 -433 -56 -553 -82
-271 -58 -494 -116 -631 -163 -48 -17 -59 -18 -80 -6 -25 14 -131 18 -162 6
-17 -7 -150 1 -196 12 -13 3 -40 24 -60 48 -46 53 -209 160 -371 242 -115 59
-468 205 -532 221 -34 9 -37 25 -5 25 12 0 42 14 66 30 24 17 52 30 63 30 14
0 18 8 18 35 0 40 -1 40 71 19z m275 -19 c-9 -9 -21 -13 -27 -10 -7 5 -2 12
13 19 29 16 35 12 14 -9z m44 11 c0 -3 -4 -8 -10 -11 -5 -3 -10 -1 -10 4 0 6
5 11 10 11 6 0 10 -2 10 -4z m1871 -66 c32 -52 50 -60 84 -37 11 7 40 25 66
39 l45 27 -36 -105 c-20 -57 -42 -110 -50 -118 -9 -9 -49 -17 -105 -21 l-90
-6 -32 68 c-50 108 -50 109 -6 132 21 11 49 31 63 45 14 13 26 25 28 25 1 1
16 -21 33 -49z m-1377 -45 c-4 -8 -8 -15 -10 -15 -2 0 -4 7 -4 15 0 8 4 15 10
15 5 0 7 -7 4 -15z m-1049 -50 c296 -88 814 -347 910 -455 26 -30 14 -25 -71
32 -167 111 -559 293 -819 383 -66 22 -126 44 -132 48 -19 12 -16 30 5 24 9
-3 58 -17 107 -32z m1835 -1 c-6 -14 -30 -46 -54 -71 l-44 -45 24 -46 c18 -34
21 -48 12 -53 -16 -10 -28 -2 -28 18 0 9 -3 14 -6 10 -4 -3 -13 0 -21 8 -20
21 -34 19 -40 -5 -3 -11 -9 -20 -14 -20 -10 0 5 43 26 73 23 33 139 157 147
157 4 0 3 -12 -2 -26z m270 6 c8 -5 11 -12 7 -17 -5 -4 -12 -1 -17 7 -5 8 -12
11 -17 7 -10 -11 68 -82 87 -79 12 2 13 1 1 -7 -9 -6 -11 -18 -7 -35 12 -48
-21 -27 -90 57 -26 31 -36 56 -28 68 7 12 45 11 64 -1z m2730 -140 c0 -5 -4
-10 -10 -10 -5 0 -10 5 -10 10 0 6 5 10 10 10 6 0 10 -4 10 -10z m-25 -40 c1
-10 -3 -16 -8 -13 -5 3 -8 0 -5 -8 8 -23 33 -16 34 9 1 12 5 26 9 30 5 4 5 -1
2 -10 -3 -10 -2 -20 3 -23 4 -3 10 0 12 7 3 7 10 8 17 4 11 -7 11 -10 0 -17
-11 -7 -10 -9 4 -9 10 0 15 -5 12 -10 -4 -6 -20 -9 -36 -6 -18 3 -35 -1 -45
-11 -13 -14 -16 -14 -29 3 -13 19 -7 46 15 59 6 4 7 12 4 18 -4 7 -3 9 1 4 5
-4 9 -16 10 -27z m-1804 -43 c-10 -9 -11 -8 -5 6 3 10 9 15 12 12 3 -3 0 -11
-7 -18z m-3042 -34 c8 -21 19 -45 27 -53 15 -18 118 -67 219 -106 104 -40 127
-57 161 -121 70 -132 21 -223 -125 -231 -38 -2 -79 1 -96 9 -16 7 -36 11 -42
10 -7 -1 -13 2 -13 7 0 6 -11 13 -25 16 -14 4 -47 28 -74 54 -65 63 -86 121
-86 237 0 86 20 215 34 215 4 0 13 -17 20 -37z m1736 27 c3 -5 1 -10 -4 -10
-6 0 -11 5 -11 10 0 6 2 10 4 10 3 0 8 -4 11 -10z m3162 -42 c-3 -7 -5 -2 -5
12 0 14 2 19 5 13 2 -7 2 -19 0 -25z m-13 -38 c-5 -5 -10 3 -11 18 -1 22 0 24
9 8 6 -10 6 -22 2 -26z m-2144 15 c7 -9 11 -17 8 -20 -2 -2 -76 -13 -164 -24
-276 -35 -779 -134 -1066 -212 -65 -17 -92 -13 -65 10 47 38 538 158 862 210
340 54 405 60 425 36z m2144 -51 c3 -8 2 -12 -4 -9 -6 3 -10 10 -10 16 0 14 7
11 14 -7z m-3629 -64 c0 -8 -10 -16 -22 -18 -22 -3 -32 16 -16 32 12 11 38 2
38 -14z m3555 -31 c0 -6 -4 -7 -10 -4 -5 3 -10 11 -10 16 0 6 5 7 10 4 6 -3
10 -11 10 -16z m-5 -28 c3 -5 2 -12 -3 -15 -5 -3 -9 1 -9 9 0 17 3 19 12 6z
m-81 -9 c2 -4 -5 -9 -17 -9 -17 -2 -19 0 -7 7 18 12 18 12 24 2z m26 -32 c-18
-12 -43 -13 -36 -2 2 4 15 8 28 9 18 2 19 0 8 -7z m-3641 -37 c24 -3 89 0 144
7 100 13 101 13 119 -10 18 -22 18 -23 1 -35 -12 -8 -67 -13 -156 -14 -167 -3
-224 4 -224 27 0 29 19 44 46 37 14 -3 46 -8 70 -12z m319 -103 c12 -21 22
-43 22 -48 0 -25 -69 -37 -219 -37 l-154 0 -30 48 c-31 51 -31 65 0 48 50 -26
264 -17 320 13 37 20 35 21 61 -24z m4293 -28 c53 -21 106 -59 96 -69 -3 -2
-20 3 -38 12 -44 23 -167 44 -259 45 -67 0 -203 -16 -299 -36 -31 -7 -33 -6
-22 14 6 11 21 24 33 28 126 39 393 43 489 6z m-1841 -72 c0 -10 5 -22 10 -25
6 -4 8 -10 5 -15 -3 -5 1 -14 8 -22 15 -16 57 -83 57 -92 0 -3 -6 -6 -14 -6
-8 0 -18 -5 -22 -12 -5 -7 -2 -9 9 -5 20 8 43 -18 26 -29 -8 -4 -9 -3 -5 4 4
7 1 12 -9 12 -9 0 -14 -4 -11 -9 3 -5 -1 -12 -10 -15 -26 -10 -34 -7 -34 14 0
11 5 20 10 20 6 0 10 8 10 18 -1 16 -1 16 -14 0 -18 -24 -25 -23 -18 4 3 14 2
19 -6 14 -7 -4 -12 -14 -12 -22 0 -8 -9 -14 -19 -14 -10 0 -21 -7 -25 -15 -3
-8 -1 -15 4 -15 6 0 10 5 10 10 0 6 12 10 26 10 15 0 23 -4 19 -10 -4 -6 -14
-9 -23 -8 -11 2 -17 -4 -17 -16 0 -11 -7 -21 -15 -23 -13 -4 -13 -3 0 6 20 14
10 20 -22 14 -19 -4 -25 -9 -20 -21 4 -11 -1 -10 -18 6 -13 12 -28 22 -32 22
-5 0 -6 5 -3 11 5 7 13 5 24 -5 15 -14 17 -13 16 14 0 16 -6 35 -13 42 -15 15
-16 38 -1 38 5 0 7 -6 3 -12 -4 -7 -4 -10 0 -6 5 4 17 -2 29 -13 36 -33 81
-19 57 18 -11 17 -11 17 -6 0 9 -28 -21 -31 -47 -5 -19 19 -22 29 -15 48 7 20
11 22 18 10 13 -20 13 -33 0 -25 -5 3 -10 4 -10 1 0 -16 21 -13 30 5 7 12 8
19 2 15 -5 -3 -13 1 -16 10 -3 9 -11 12 -18 8 -8 -5 -9 -2 -5 9 3 10 2 17 -2
17 -5 0 -11 -7 -15 -15 -3 -8 0 -15 6 -15 7 0 6 -5 -2 -15 -7 -8 -9 -15 -4
-15 5 0 2 -4 -6 -10 -9 -6 -17 -5 -22 3 -4 7 -5 -4 -2 -24 5 -30 2 -38 -18
-51 -23 -15 -23 -15 -24 18 0 22 4 34 13 34 7 0 13 7 13 16 0 9 8 23 18 30 15
12 12 12 -15 3 -18 -6 -33 -17 -33 -25 0 -8 -8 -14 -17 -14 -15 0 -16 2 -3 10
13 9 13 10 0 10 -8 0 5 11 30 23 25 12 56 30 70 40 29 20 41 22 34 4 -3 -8 1
-14 9 -14 9 0 12 7 9 20 -4 16 -2 19 12 14 11 -5 15 -3 10 5 -8 12 24 40 37
32 5 -3 9 -14 9 -24z m-245 -110 c-3 -5 -14 -10 -23 -10 -15 0 -15 2 -2 10 20
13 33 13 25 0z m-38 -48 c1 -17 -3 -30 -8 -26 -5 3 -9 16 -9 30 0 15 -4 23
-10 19 -6 -4 -8 -9 -6 -13 2 -4 -7 -8 -20 -8 -14 -1 -21 2 -18 8 4 6 0 14 -7
19 -8 5 4 7 31 6 43 -2 45 -3 47 -35z m-2219 1 c-32 -2 -84 -2 -115 0 -32 2
-6 3 57 3 63 0 89 -1 58 -3z m2292 -21 c0 -25 -4 -29 -27 -27 -21 1 -28 6 -29
23 -1 17 -1 18 3 3 5 -25 43 -16 43 10 0 11 2 19 5 19 3 0 5 -13 5 -28z m83
-6 c4 -10 1 -13 -8 -9 -8 3 -12 9 -9 14 7 12 11 11 17 -5z m247 -1 c11 -13 10
-14 -4 -9 -9 3 -16 10 -16 15 0 13 6 11 20 -6z m-399 -33 c-7 -2 -18 1 -23 6
-8 8 -4 9 13 5 13 -4 18 -8 10 -11z m-2349 -247 c61 -41 67 -108 22 -215 -21
-49 -29 -87 -32 -152 -2 -49 -9 -88 -14 -88 -5 0 -6 -4 -3 -10 4 -6 -5 -10
-21 -10 -34 0 -69 37 -103 110 -22 46 -26 69 -26 145 0 99 14 150 53 196 41
49 78 56 124 24z m-233 -6 c26 -9 32 -16 28 -33 -37 -152 -40 -184 -25 -276
l15 -90 -23 15 c-28 18 -37 19 -29 3 14 -28 -48 50 -72 91 -39 64 -44 169 -11
231 14 25 35 51 49 57 30 16 29 16 68 2z m520 -125 c35 -25 61 -91 61 -158 0
-53 -5 -67 -44 -130 -42 -67 -58 -82 -114 -113 -36 -20 -109 16 -128 64 -17
40 -20 141 -5 191 17 55 61 122 94 143 39 23 104 25 136 3z m1128 -29 c13 -9
34 -39 48 -67 l25 -51 -30 -67 c-16 -37 -37 -99 -45 -136 -23 -101 -33 -121
-72 -139 -46 -22 -75 -8 -114 54 -90 141 -40 390 86 424 29 8 75 -1 102 -18z
m-349 1 c65 -33 67 -40 67 -242 0 -202 3 -194 -64 -194 -57 0 -101 34 -139
110 -95 191 -8 400 136 326z m687 -90 c55 -55 40 -218 -30 -324 -41 -60 -107
-112 -144 -112 -37 0 -90 35 -102 68 -18 45 -6 180 21 232 55 106 117 160 188
160 32 0 49 -6 67 -24z m2535 -111 c80 -9 182 -19 227 -24 49 -5 88 -14 97
-23 13 -13 11 -15 -13 -16 -37 -1 -137 -30 -181 -52 -56 -28 -84 -89 -84 -179
l1 -74 -20 24 c-16 20 -18 34 -14 80 3 31 12 70 22 88 19 37 15 50 -8 26 -9
-8 -19 -15 -23 -15 -13 0 -33 -35 -34 -57 0 -12 -4 -25 -10 -28 -5 -3 -7 -19
-3 -35 7 -35 15 -34 -129 -14 -62 8 -227 28 -367 44 -139 16 -256 31 -259 34
-9 10 43 7 323 -19 446 -42 412 -40 418 -19 7 25 17 72 18 81 0 5 5 13 11 20
12 14 -6 19 -104 28 -37 3 -84 7 -105 10 -21 2 -85 9 -143 16 -58 6 -137 17
-177 25 -40 8 -82 14 -95 14 -19 0 -20 2 -8 10 8 5 70 10 138 10 80 0 121 4
117 10 -4 6 14 10 47 11 54 1 174 15 151 18 -7 0 -13 6 -13 11 0 14 51 13 220
-5z m506 -109 c18 -14 18 -15 -11 -26 -16 -7 -45 -14 -64 -17 -27 -5 -33 -3
-26 8 29 50 64 62 101 35z m-164 -76 c-4 -59 -2 -74 14 -91 16 -18 16 -19 1
-13 -9 3 -17 2 -17 -4 0 -6 6 -12 13 -15 13 -5 9 -6 -141 -38 -89 -19 -105
-21 -113 -8 -19 30 -5 144 16 135 7 -2 16 -1 21 3 5 5 48 17 96 27 52 11 90
24 93 32 4 10 0 13 -15 9 -14 -3 -20 0 -20 10 0 10 6 14 20 10 11 -3 20 -1 20
4 0 5 4 9 9 9 4 0 6 -32 3 -70z m-62 44 c0 -8 -4 -12 -10 -9 -5 3 -10 2 -10
-3 0 -6 -10 -8 -22 -5 -19 4 -20 3 -8 -6 12 -8 8 -11 -20 -12 -19 -1 -44 -1
-55 0 -17 2 -18 0 -5 -9 13 -10 13 -11 -1 -7 -9 3 -22 0 -28 -6 -7 -7 -11 -7
-11 -1 0 19 39 47 55 40 9 -3 14 -2 10 3 -3 5 18 14 47 19 29 5 54 10 56 11 1
0 2 -6 2 -15z m-5058 -13 c4 -3 -17 -4 -47 -3 -30 2 -55 8 -55 14 0 10 89 1
102 -11z m56 -97 c35 -8 87 -16 115 -18 29 -2 79 -11 112 -19 33 -8 107 -20
165 -27 57 -6 147 -21 200 -32 52 -11 109 -22 125 -25 17 -2 62 -10 100 -18
39 -7 88 -16 110 -19 45 -7 148 -25 341 -61 72 -14 177 -30 235 -36 57 -6 108
-16 113 -20 6 -5 18 -9 28 -9 10 0 17 -4 16 -9 -2 -5 5 -16 15 -23 16 -12 20
-32 24 -119 3 -63 1 -115 -6 -131 -16 -42 -10 -43 -476 52 -283 58 -1186 249
-1301 275 -21 5 -21 7 -8 42 17 49 17 105 0 171 -15 54 -15 54 7 48 12 -4 50
-13 85 -22z m-825 -41 c-7 -2 -19 -2 -25 0 -7 3 -2 5 12 5 14 0 19 -2 13 -5z
m1914 -59 c-3 -3 -12 -4 -19 -1 -8 3 -5 6 6 6 11 1 17 -2 13 -5z m2791 -12
c25 -16 -61 -70 -243 -153 -59 -26 -97 -54 -88 -63 3 -3 -2 -6 -13 -7 -18 0
-18 -1 1 -9 16 -7 11 -9 -20 -9 -28 -1 -36 2 -26 8 10 6 0 8 -27 4 -23 -3 -63
0 -89 7 -44 11 -245 37 -353 46 -80 6 -206 28 -182 32 13 2 19 8 16 14 -4 6
-2 8 4 5 11 -7 163 59 173 76 4 5 19 7 34 3 17 -4 24 -3 20 4 -11 18 27 11 87
-17 38 -17 58 -33 60 -46 2 -11 8 -22 15 -24 7 -3 10 4 6 19 -3 13 -1 19 4 13
4 -5 24 -12 43 -13 19 -2 36 -7 38 -11 1 -5 15 -6 30 -4 22 4 24 2 12 -7 -12
-10 -12 -11 5 -5 11 4 34 9 50 12 17 3 35 9 40 13 6 5 27 11 48 15 21 4 41 14
44 21 3 8 9 12 13 9 4 -3 13 1 19 9 7 8 21 12 34 8 12 -3 19 -1 15 3 -12 13
12 35 38 35 13 0 24 5 24 10 0 12 149 13 168 2z m-2535 -29 c-7 -2 -19 -2 -25
0 -7 3 -2 5 12 5 14 0 19 -2 13 -5z m140 -20 c-7 -2 -19 -2 -25 0 -7 3 -2 5
12 5 14 0 19 -2 13 -5z m2891 -12 c7 -10 -17 -21 -45 -21 -10 0 -19 -4 -19
-10 0 -5 -5 -10 -11 -10 -5 0 -7 5 -4 10 3 6 -1 10 -9 10 -19 0 -30 -17 -14
-23 7 -2 -3 -7 -23 -11 -21 -3 -42 -13 -49 -21 -6 -7 -17 -12 -25 -9 -7 3 -16
1 -20 -5 -3 -6 -23 -11 -43 -10 -36 1 -35 1 18 17 30 8 57 19 58 24 2 4 10 8
17 8 8 0 20 6 27 13 32 31 65 47 100 47 20 0 39 -4 42 -9z m-1684 -11 c-8 -5
-24 -9 -35 -9 -16 1 -16 2 5 9 35 11 48 11 30 0z m2030 -10 c-7 -4 -11 -10
-11 -14 3 -19 0 -27 -9 -21 -5 3 -7 12 -3 20 9 26 -21 16 -34 -10 -8 -17 -8
-27 -1 -32 6 -3 8 -1 5 4 -5 7 5 11 27 10 19 0 41 6 50 16 10 9 18 17 19 17 1
0 20 -7 42 -14 l40 -14 -80 -37 c-44 -20 -96 -44 -115 -52 -19 -8 -45 -20 -58
-26 -18 -9 -25 -8 -32 3 -8 13 -10 13 -10 -1 0 -12 -81 -61 -109 -65 -7 -1
-32 -11 -88 -35 -24 -10 -43 -15 -43 -12 0 3 -6 1 -12 -5 -17 -13 -280 -125
-295 -125 -7 0 -13 -4 -13 -9 0 -4 -8 -8 -17 -8 -10 0 -32 -9 -49 -19 -18 -11
-42 -21 -55 -23 -21 -4 -22 -6 -6 -12 18 -8 134 36 307 116 46 22 93 41 105
42 11 1 39 12 61 24 52 26 74 13 38 -22 -14 -15 -12 -16 22 -11 20 2 40 7 43
11 3 4 -5 4 -17 1 -13 -3 -21 -3 -18 0 3 3 1 14 -4 23 -8 15 -4 20 23 30 52
21 87 36 170 74 44 20 85 36 93 36 8 0 32 11 52 25 20 14 42 25 47 25 6 0 30
9 53 20 47 23 52 24 52 10 0 -5 -7 -10 -15 -10 -9 0 -18 -7 -21 -15 -4 -8 -10
-13 -14 -10 -4 3 -23 -2 -41 -10 -19 -8 -30 -14 -26 -15 4 0 2 -6 -5 -14 -9
-10 -15 -11 -20 -2 -5 7 -8 6 -8 -4 0 -13 -1 -13 -10 0 -9 13 -10 13 -11 0 -1
-8 -1 -18 0 -22 0 -5 -5 -9 -11 -10 -40 -4 -68 -17 -68 -30 0 -7 4 -7 13 -1
16 13 77 15 77 2 0 -5 -8 -9 -18 -9 -10 0 -24 -6 -31 -12 -12 -11 -13 -9 -7 7
5 17 4 18 -6 4 -7 -9 -24 -21 -37 -28 -19 -11 -25 -11 -32 0 -7 11 -9 11 -9
-2 0 -20 -39 -32 -57 -18 -6 6 -17 8 -22 4 -6 -3 -21 -1 -33 6 -22 11 -22 11
1 -12 16 -15 26 -19 29 -11 4 13 22 17 22 4 0 -17 -205 -106 -226 -98 -8 3
-14 1 -14 -5 0 -5 -12 -14 -27 -20 -16 -6 -41 -17 -57 -25 -36 -17 -58 -18
-76 -1 -12 10 -12 9 -2 -4 11 -14 3 -20 -55 -46 -38 -17 -86 -36 -108 -43 -22
-7 -44 -16 -50 -20 -5 -4 -19 -10 -30 -12 -11 -3 -28 -9 -38 -13 -16 -7 -18
-2 -17 36 1 24 -1 70 -3 102 -2 36 1 57 7 58 6 0 5 3 -1 6 -7 2 -13 13 -13 22
0 14 22 25 93 49 50 16 144 50 207 75 63 24 169 65 235 91 66 25 163 63 215
85 52 21 110 39 128 38 18 0 28 -3 22 -7z m401 -20 c-12 -11 -27 -17 -33 -14
-11 7 21 33 42 33 10 0 8 -6 -9 -19z m-2526 0 c-11 -5 -27 -9 -35 -9 -13 -1
-13 0 0 9 8 5 24 9 35 9 l20 0 -20 -9z m2401 -12 c4 -6 2 -14 -4 -16 -7 -2
-12 -8 -12 -14 0 -6 7 -5 16 3 9 7 21 14 28 15 6 1 19 5 29 9 9 4 17 3 17 -2
0 -9 -114 -66 -262 -132 -46 -20 -68 -26 -68 -17 0 15 42 36 70 36 11 0 20 5
20 11 0 6 7 9 15 6 8 -4 17 -1 21 5 5 7 2 8 -6 3 -9 -6 -11 -4 -6 4 5 7 14 10
22 7 8 -3 24 4 35 15 11 11 24 17 28 14 17 -10 36 5 37 30 1 14 -2 25 -7 25
-5 0 -9 -5 -9 -12 0 -6 -3 -9 -6 -5 -9 9 5 27 21 27 8 0 17 -5 21 -12z m41 6
c-3 -3 -12 -4 -19 -1 -8 3 -5 6 6 6 11 1 17 -2 13 -5z m-102 -14 c-3 -5 -13
-10 -21 -10 -8 0 -12 5 -9 10 3 6 13 10 21 10 8 0 12 -4 9 -10z m-6238 -22
c-3 -8 -6 -5 -6 6 -1 11 2 17 5 13 3 -3 4 -12 1 -19z m443 6 c0 -2 -7 -4 -15
-4 -8 0 -15 4 -15 10 0 5 7 7 15 4 8 -4 15 -8 15 -10z m3525 -14 c39 -4 133
-16 210 -25 181 -21 540 -76 455 -70 -36 3 -112 12 -170 20 -58 8 -181 24
-275 35 -186 23 -342 47 -310 48 11 1 52 -3 90 -8z m2295 0 c0 -5 -4 -10 -10
-10 -5 0 -10 5 -10 10 0 6 5 10 10 10 6 0 10 -4 10 -10z m-6050 -25 c30 -4 64
-10 75 -15 11 -5 58 -11 105 -15 47 -3 94 -7 105 -9 11 -2 35 -4 53 -5 18 0
31 -4 29 -8 -3 -5 14 -9 36 -9 77 -3 252 -30 237 -37 -8 -3 -4 -4 10 -1 23 4
247 -21 405 -46 33 -5 96 -14 140 -19 340 -42 379 -47 470 -67 39 -8 160 -32
270 -54 534 -105 800 -161 932 -196 8 -2 12 -48 12 -163 0 -189 25 -170 -189
-141 -80 10 -334 42 -565 70 -231 28 -618 75 -860 105 -242 30 -539 66 -660
80 -121 14 -231 27 -245 30 -14 3 -113 16 -221 30 -108 13 -204 28 -213 31
-10 4 -22 18 -28 33 -11 28 -19 295 -11 373 5 45 6 47 31 43 15 -2 52 -6 82
-10z m-210 1 c0 -3 -4 -8 -10 -11 -5 -3 -10 -1 -10 4 0 6 5 11 10 11 6 0 10
-2 10 -4z m5365 -6 c3 -5 1 -10 -4 -10 -6 0 -11 5 -11 10 0 6 2 10 4 10 3 0 8
-4 11 -10z m-55 -27 c-19 -9 -39 -17 -45 -18 -12 -1 -55 -19 -108 -43 -25 -12
-51 -16 -75 -13 l-37 6 39 3 c22 2 35 7 28 11 -6 4 5 8 25 8 21 1 39 6 41 12
2 6 15 11 28 11 13 0 24 5 24 10 0 6 14 10 31 10 16 0 28 4 25 8 -2 4 10 9 27
10 l32 2 -35 -17z m-5310 -342 c14 -55 6 -66 -10 -14 -7 21 -14 110 -15 198
l-3 160 9 -150 c4 -82 13 -170 19 -194z m4010 303 c47 -8 106 -14 132 -14 45
0 244 -27 373 -51 33 -6 69 -12 80 -13 11 -2 28 -6 38 -10 9 -5 23 -6 30 -3
13 5 90 -3 289 -29 96 -13 129 -21 133 -33 11 -27 18 -248 9 -253 -5 -3 -72 5
-149 18 -77 12 -295 46 -485 74 -190 28 -417 62 -505 76 l-160 26 2 122 c2 66
3 121 3 122 0 1 128 -18 210 -32z m775 -14 c13 -6 2 -7 -30 -3 -27 3 -52 7
-54 9 -9 8 65 2 84 -6z m200 -30 c3 -6 -1 -7 -9 -4 -18 7 -21 14 -7 14 6 0 13
-4 16 -10z m42 -6 c-3 -3 -12 -4 -19 -1 -8 3 -5 6 6 6 11 1 17 -2 13 -5z m78
-14 c25 -11 -1 -11 -35 0 -20 6 -21 8 -5 8 11 0 29 -3 40 -8z m1509 1 c3 -5
-9 -10 -27 -12 -47 -6 -98 1 -92 12 8 12 112 12 119 0z m-2759 -286 c39 -7
131 -23 205 -35 520 -82 749 -124 818 -152 24 -9 12 -14 -118 -47 l-145 -36 5
-35 c2 -19 4 -54 5 -77 0 -22 3 -39 8 -36 4 2 7 -1 7 -6 0 -6 -4 -11 -9 -11
-5 0 -8 -8 -7 -17 2 -10 -3 -24 -11 -31 -7 -8 -11 -18 -8 -23 4 -5 2 -15 -2
-23 -4 -8 -8 30 -8 87 -1 133 -10 152 -71 143 -73 -10 -86 -21 -78 -64 4 -20
8 -73 8 -117 0 -64 -4 -89 -22 -122 -35 -68 -62 -74 -193 -48 -41 8 -171 33
-289 55 -118 23 -271 52 -340 65 -69 14 -143 27 -165 30 -175 26 -255 44 -255
56 0 14 56 10 175 -12 132 -24 430 -77 500 -89 28 -4 145 -24 260 -45 116 -20
219 -38 230 -39 25 -2 38 11 52 49 6 17 14 39 19 49 5 15 4 17 -6 11 -13 -8
-11 9 6 68 3 9 1 17 -5 17 -7 0 -11 22 -11 53 0 78 -47 140 -103 136 -7 0 -5
-3 3 -6 20 -7 50 -34 50 -44 0 -4 -15 -3 -32 2 -38 11 -206 47 -258 55 -19 3
-73 12 -119 20 -47 8 -132 21 -190 29 -58 9 -126 20 -151 25 -25 5 -65 11 -90
14 -48 6 -86 12 -135 23 -16 4 -37 6 -45 4 -27 -5 -131 22 -127 33 2 6 33 14
68 18 35 5 71 12 80 17 13 8 182 57 254 75 29 7 159 -3 240 -19z m2835 -22
c-11 -17 -11 -17 -6 0 3 10 7 26 7 35 1 15 2 15 6 0 2 -10 -1 -25 -7 -35z
m-6666 -8 c3 -8 1 -15 -3 -15 -5 0 -11 7 -15 15 -3 8 -1 15 3 15 5 0 11 -7 15
-15z m223 -81 c-3 -3 -12 -4 -19 -1 -8 3 -5 6 6 6 11 1 17 -2 13 -5z m4878
-14 c-3 -5 -10 -10 -16 -10 -5 0 -9 5 -9 10 0 6 7 10 16 10 8 0 12 -4 9 -10z
m-4682 -7 c-13 -2 -35 -2 -50 0 -16 2 -5 4 22 4 28 0 40 -2 28 -4z m57 -3 c12
-8 11 -10 -7 -10 -13 0 -23 5 -23 10 0 13 11 13 30 0z m53 -7 c-7 -2 -19 -2
-25 0 -7 3 -2 5 12 5 14 0 19 -2 13 -5z m2832 -48 c33 -4 65 -11 70 -16 6 -4
20 -8 30 -8 55 0 363 -44 555 -81 85 -16 191 -35 235 -42 93 -16 92 -16 94
-144 1 -120 -1 -122 -130 -100 -57 9 -138 23 -179 31 -147 27 -308 55 -490 86
-102 16 -212 35 -245 42 l-60 12 0 75 c0 41 -4 94 -9 116 l-8 41 38 -2 c22 -1
66 -6 99 -10z m-2512 -2 c-7 -2 -19 -2 -25 0 -7 3 -2 5 12 5 14 0 19 -2 13 -5z
m257 -21 c0 -4 -19 -6 -42 -4 -71 5 -77 10 -15 11 31 0 57 -2 57 -7z m53 -9
c-7 -2 -19 -2 -25 0 -7 3 -2 5 12 5 14 0 19 -2 13 -5z m652 -73 c27 -6 8 -7
-60 -3 -55 3 -102 7 -104 9 -8 8 125 3 164 -6z m133 -17 c-10 -2 -26 -2 -35 0
-10 3 -2 5 17 5 19 0 27 -2 18 -5z m1071 -133 c13 0 21 -3 17 -7 -10 -10 -99
-3 -111 9 -7 7 2 9 30 4 22 -3 51 -6 64 -6z"/>
<path d="M2390 9150 c-6 -11 -8 -20 -6 -20 3 0 10 9 16 20 6 11 8 20 6 20 -3
0 -10 -9 -16 -20z"/>
<path d="M2406 9093 c-20 -32 -36 -65 -36 -74 0 -8 -3 -19 -7 -23 -13 -13 -16
-51 -17 -181 -1 -138 -1 -135 57 -197 32 -34 114 -16 147 32 8 12 38 37 66 55
66 43 84 81 84 180 0 149 -25 191 -149 242 -89 36 -104 32 -145 -34z"/>
<path d="M5300 9121 c0 -6 -7 -8 -15 -5 -9 4 -19 -3 -26 -19 -15 -32 -6 -57
20 -57 24 0 84 56 78 73 -4 15 -57 22 -57 8z"/>
<path d="M5150 9093 c0 -14 -2 -15 -9 -5 -12 20 -34 -12 -26 -38 9 -30 42 -25
60 10 20 39 19 50 -5 50 -12 0 -20 -7 -20 -17z"/>
<path d="M5004 9089 c-3 -6 -19 -9 -35 -5 -18 3 -29 1 -29 -5 0 -6 -7 -9 -15
-5 -10 4 -24 -8 -41 -35 -28 -45 -47 -47 -52 -6 -3 26 -6 27 -45 21 -50 -7
-107 -23 -107 -31 0 -22 36 -135 55 -173 29 -58 72 -110 90 -110 32 0 157 178
183 261 23 72 20 127 -4 88z"/>
<path d="M4385 8958 c-95 -30 -199 -70 -210 -80 -16 -15 88 -108 120 -108 70
0 142 77 160 173 8 42 11 41 -70 15z"/>
<path d="M2322 8910 c0 -14 2 -19 5 -12 2 6 2 18 0 25 -3 6 -5 1 -5 -13z"/>
<path d="M5043 8893 c-43 -64 -79 -163 -60 -163 7 0 6 -4 -3 -10 -9 -6 -10
-10 -3 -10 6 0 18 6 25 13 11 11 16 12 25 1 10 -10 10 -14 0 -17 -7 -3 -2 -6
11 -6 13 -1 25 6 28 17 3 9 11 27 17 40 6 12 11 47 11 77 1 52 -5 67 -19 45
-3 -5 -12 -10 -18 -10 -7 0 -6 4 3 10 8 5 11 10 5 10 -5 0 -1 7 9 15 17 13 17
15 4 15 -9 0 -25 -12 -35 -27z m34 -117 c-7 -19 -37 -21 -37 -3 0 8 -4 7 -10
-3 -5 -8 -10 -10 -10 -4 0 6 7 17 16 24 8 8 14 9 12 4 -2 -5 2 -9 7 -9 6 0 9
6 8 14 -1 9 2 10 9 3 6 -6 8 -18 5 -26z"/>
<path d="M5880 8772 c-14 -8 -33 -25 -43 -38 -15 -21 -16 -24 -2 -24 8 0 15 5
15 11 0 5 4 7 10 4 16 -10 -12 -32 -35 -27 -20 5 -20 5 -2 -16 22 -25 14 -45
-15 -36 -14 4 -18 2 -14 -5 11 -16 38 -13 64 8 26 23 29 33 5 24 -11 -4 -14
-3 -9 6 5 7 15 10 23 7 22 -9 49 14 31 25 -11 7 -11 9 0 9 24 0 47 31 36 48
-13 20 -34 22 -64 4z"/>
<path d="M4980 8685 c0 -5 5 -17 10 -25 5 -8 10 -10 10 -5 0 6 -5 17 -10 25
-5 8 -10 11 -10 5z"/>
<path d="M3658 8647 c-31 -17 -55 -34 -52 -38 2 -4 25 -17 50 -29 54 -27 120
-88 159 -148 15 -23 30 -41 32 -39 2 2 -8 44 -23 93 -29 101 -72 188 -94 191
-8 1 -41 -13 -72 -30z"/>
<path d="M4085 8664 c-17 -13 -20 -26 -19 -92 0 -62 5 -89 27 -136 43 -92 110
-170 175 -201 70 -34 135 21 178 152 70 214 -34 401 -121 217 -14 -29 -25 -60
-25 -68 0 -27 -13 -17 -54 38 -41 54 -104 106 -128 106 -7 0 -22 -7 -33 -16z"/>
<path d="M5505 8598 c-113 -133 -154 -410 -67 -457 96 -51 430 106 491 231 37
77 21 140 -38 153 -35 7 -117 -20 -186 -63 -27 -17 -63 -39 -78 -47 l-29 -16
7 93 c7 111 -2 148 -39 148 -16 0 -36 -14 -61 -42z"/>
<path d="M6723 8573 c4 -3 2 -12 -5 -20 -8 -11 -7 -12 6 -7 18 7 22 34 4 34
-6 0 -8 -3 -5 -7z"/>
<path d="M4666 8551 c-30 -33 -31 -89 -2 -179 48 -153 149 -322 192 -322 30 0
219 155 306 249 94 104 116 191 48 191 -53 0 -95 -25 -232 -138 -67 -55 -79
-61 -84 -45 -31 91 -108 220 -147 248 -29 20 -60 19 -81 -4z"/>
<path d="M6682 8520 c0 -14 2 -19 5 -12 2 6 2 18 0 25 -3 6 -5 1 -5 -13z"/>
<path d="M6455 8488 c-71 -24 -150 -85 -198 -152 -18 -26 -14 -24 34 14 51 41
181 110 229 123 12 3 19 10 15 16 -8 13 -39 13 -80 -1z"/>
<path d="M4549 8283 c-1 -5 -1 -12 0 -17 1 -5 -2 -12 -7 -15 -5 -3 -7 -21 -5
-38 7 -47 39 -45 59 3 8 20 13 41 10 47 -2 7 -5 4 -5 -6 -1 -10 -6 -15 -12
-12 -6 4 -8 13 -5 21 3 8 1 14 -4 14 -10 0 -15 -29 -10 -60 1 -8 -2 -11 -6 -7
-4 4 -7 23 -6 42 2 19 0 35 -3 35 -3 0 -6 -3 -6 -7z"/>
<path d="M5176 8204 c-12 -12 -16 -12 -16 -2 0 8 -5 6 -11 -5 -22 -38 -20 -87
5 -87 19 0 44 37 52 74 7 39 -4 46 -30 20z"/>
<path d="M4400 8028 c-25 -56 -25 -125 1 -218 47 -172 225 -426 310 -445 23
-5 43 0 78 17 111 58 354 269 435 378 45 62 67 131 57 181 -12 60 -35 50 -177
-73 -72 -62 -157 -135 -189 -163 -85 -72 -149 -129 -156 -138 -7 -10 -69 68
-148 186 -45 68 -112 197 -149 290 -16 39 -40 33 -62 -15z"/>
<path d="M6965 7990 c-3 -6 1 -7 9 -4 18 7 21 14 7 14 -6 0 -13 -4 -16 -10z"/>
<path d="M4713 7224 c0 -15 3 -21 7 -14 5 8 9 7 13 -4 4 -9 2 -16 -3 -16 -6 0
-10 -10 -10 -21 0 -19 -2 -20 -17 -8 -14 12 -16 12 -12 0 8 -24 30 -25 36 -2
3 12 9 21 14 21 5 0 9 9 9 19 0 11 6 22 13 24 6 3 -1 6 -16 6 -16 1 -26 5 -22
11 3 6 2 10 -3 10 -5 0 -9 -12 -9 -26z"/>
<path d="M5478 9013 c7 -3 16 -2 19 1 4 3 -2 6 -13 5 -11 0 -14 -3 -6 -6z"/>
<path d="M5474 8948 c9 -5 23 -5 32 0 12 6 7 9 -16 9 -23 0 -28 -3 -16 -9z"/>
<path d="M6230 8891 c0 -5 8 -8 17 -7 10 0 18 -7 20 -19 l3 -20 -9 20 c-9 18
-10 17 -10 -7 -1 -40 14 -42 26 -3 9 27 8 35 -4 39 -22 9 -43 7 -43 -3z"/>
<path d="M6200 8814 c0 -8 5 -12 10 -9 6 4 8 11 5 16 -9 14 -15 11 -15 -7z"/>
<path d="M6360 8790 c-9 -6 -10 -10 -3 -10 6 0 15 5 18 10 8 12 4 12 -15 0z"/>
<path d="M6348 8763 c7 -3 16 -2 19 1 4 3 -2 6 -13 5 -11 0 -14 -3 -6 -6z"/>
<path d="M6190 8756 c0 -2 7 -7 16 -10 8 -3 12 -2 9 4 -6 10 -25 14 -25 6z"/>
<path d="M2487 5884 c-53 -16 -67 -36 -48 -66 7 -11 8 -17 2 -14 -7 4 -8 1 -5
-8 6 -16 41 -32 62 -28 6 2 12 -2 12 -9 0 -19 115 -6 140 16 23 21 23 56 0 62
-13 4 -13 3 0 -6 13 -9 13 -11 -2 -11 -10 0 -18 7 -18 15 0 8 6 15 12 15 7 0
4 9 -8 20 -26 27 -87 32 -147 14z m63 -28 c0 -2 -7 -7 -16 -10 -8 -3 -12 -2
-9 4 6 10 25 14 25 6z m30 0 c0 -3 -4 -8 -10 -11 -5 -3 -10 -1 -10 4 0 6 5 11
10 11 6 0 10 -2 10 -4z m26 -34 c-22 -5 -30 3 -21 18 5 8 11 7 22 -2 15 -12
14 -13 -1 -16z"/>
<path d="M6045 6995 c-5 -2 -44 -11 -85 -20 -85 -19 -217 -80 -287 -132 -204
-152 -327 -374 -339 -610 -2 -46 -2 -83 0 -83 1 0 28 51 59 113 31 61 70 128
86 147 l29 35 -24 -85 c-29 -98 -48 -270 -39 -350 16 -139 64 -266 151 -396
61 -92 124 -154 237 -232 93 -64 171 -97 275 -117 80 -15 292 -21 292 -7 0 4
21 8 48 10 26 1 48 6 50 11 2 5 12 7 23 4 11 -3 27 1 37 9 9 9 49 32 87 52
150 78 265 196 340 351 263 534 -50 1165 -638 1290 -59 13 -272 20 -302 10z
m-39 -260 c92 -38 157 -143 156 -255 0 -109 -50 -194 -144 -246 -48 -26 -62
-29 -143 -29 -68 0 -98 5 -125 19 -94 49 -150 145 -150 254 0 49 6 68 35 118
39 65 69 94 129 126 70 36 171 41 242 13z"/>
<path d="M6421 3707 c-20 -25 -41 -86 -41 -122 0 -61 36 -147 79 -187 33 -31
47 -38 82 -38 128 0 236 173 185 295 -21 51 -46 45 -95 -20 -71 -94 -86 -92
-137 23 -29 62 -50 76 -73 49z"/>
<path d="M6986 3685 c-11 -8 -15 -15 -10 -15 6 0 19 7 30 15 10 8 15 14 9 14
-5 0 -19 -6 -29 -14z"/>
<path d="M7045 3659 c-11 -17 1 -21 15 -4 8 9 8 15 2 15 -6 0 -14 -5 -17 -11z"/>
<path d="M6051 3605 c-34 -39 -40 -75 -16 -95 18 -15 63 1 92 32 17 19 17 20
0 29 -10 6 -17 22 -17 39 0 40 -21 38 -59 -5z"/>
<path d="M7175 3610 c27 -12 43 -12 25 0 -8 5 -22 9 -30 9 -10 0 -8 -3 5 -9z"/>
<path d="M6921 3597 c-6 -8 -14 -27 -17 -43 -6 -34 26 -84 55 -84 18 0 67 57
57 67 -3 4 -6 1 -6 -5 0 -27 -18 -9 -24 23 -4 19 -15 39 -26 45 -24 13 -25 13
-39 -3z"/>
<path d="M7006 3485 c-9 -26 -7 -32 5 -12 6 10 9 21 6 23 -2 3 -7 -2 -11 -11z"/>
<path d="M7035 3470 c-8 -13 3 -30 18 -30 8 0 7 3 -2 9 -7 5 -10 14 -7 20 4 6
5 11 2 11 -3 0 -8 -4 -11 -10z"/>
<path d="M7115 3450 c-3 -5 -1 -10 4 -10 6 0 11 5 11 10 0 6 -2 10 -4 10 -3 0
-8 -4 -11 -10z"/>
<path d="M6196 3398 c-35 -31 -39 -72 -8 -76 13 -2 32 4 42 13 25 22 35 66 18
76 -19 13 -24 11 -52 -13z"/>
<path d="M7015 3410 c-3 -5 -1 -10 4 -10 6 0 11 5 11 10 0 6 -2 10 -4 10 -3 0
-8 -4 -11 -10z"/>
<path d="M7032 3384 c-7 -8 -8 -14 -3 -14 10 0 25 19 20 25 -2 1 -10 -3 -17
-11z"/>
<path d="M7070 3390 c0 -5 5 -10 10 -10 6 0 10 5 10 10 0 6 -4 10 -10 10 -5 0
-10 -4 -10 -10z"/>
<path d="M7045 3360 c-3 -6 1 -7 9 -4 18 7 21 14 7 14 -6 0 -13 -4 -16 -10z"/>
<path d="M6463 3114 c-7 -20 12 -41 22 -23 6 8 4 10 -5 4 -10 -6 -12 -3 -8 13
7 25 0 30 -9 6z"/>
<path d="M6575 3040 c-3 -6 1 -7 9 -4 18 7 21 14 7 14 -6 0 -13 -4 -16 -10z"/>
<path d="M6726 3033 c-6 -14 -5 -15 5 -6 7 7 10 15 7 18 -3 3 -9 -2 -12 -12z"/>
<path d="M6610 3036 c0 -2 8 -10 18 -17 15 -13 16 -12 3 4 -13 16 -21 21 -21
13z"/>
<path d="M6745 3020 c-3 -5 -2 -10 4 -10 5 0 13 5 16 10 3 6 2 10 -4 10 -5 0
-13 -4 -16 -10z"/>
<path d="M6715 3000 c-3 -5 -1 -10 4 -10 6 0 11 5 11 10 0 6 -2 10 -4 10 -3 0
-8 -4 -11 -10z"/>
<path d="M6650 2990 c0 -5 7 -10 15 -10 8 0 15 5 15 10 0 6 -7 10 -15 10 -8 0
-15 -4 -15 -10z"/>
<path d="M3510 3315 c6 -8 18 -11 26 -8 18 7 13 12 -16 18 -18 3 -20 2 -10
-10z"/>
<path d="M3395 3310 c-8 -13 3 -30 18 -30 8 0 7 3 -2 9 -7 5 -10 14 -7 20 4 6
5 11 2 11 -3 0 -8 -4 -11 -10z"/>
<path d="M7217 3529 c7 -7 15 -10 18 -7 3 3 -2 9 -12 12 -14 6 -15 5 -6 -5z"/>
<path d="M2437 3287 c-4 -14 21 -67 33 -67 12 0 8 43 -5 53 -6 6 -4 7 6 4 9
-3 22 -1 30 5 11 8 10 9 -3 4 -10 -3 -18 -2 -18 2 0 13 -38 12 -43 -1z"/>
<path d="M2497 3264 c-4 -4 -7 -14 -7 -23 0 -11 3 -12 11 -4 6 6 10 16 7 23
-2 6 -7 8 -11 4z"/>
<path d="M6285 2910 c-3 -5 -2 -10 4 -10 5 0 13 5 16 10 3 6 2 10 -4 10 -5 0
-13 -4 -16 -10z"/>
<path d="M6256 2881 c-3 -5 6 -8 20 -8 19 0 22 2 13 8 -18 11 -26 11 -33 0z"/>
<path d="M6090 2840 c0 -5 5 -10 10 -10 6 0 10 5 10 10 0 6 -4 10 -10 10 -5 0
-10 -4 -10 -10z"/>
<path d="M8046 2101 c-4 -5 3 -7 14 -4 23 6 26 13 6 13 -8 0 -17 -4 -20 -9z"/>
<path d="M8175 1950 c4 -6 11 -8 16 -5 14 9 11 15 -7 15 -8 0 -12 -5 -9 -10z"/>
<path d="M8128 1933 c6 -2 18 -2 25 0 6 3 1 5 -13 5 -14 0 -19 -2 -12 -5z"/>
<path d="M8258 1930 c-1 -5 -20 -10 -40 -12 -21 -1 -35 -5 -30 -9 13 -12 82 2
82 17 0 16 -7 19 -12 4z"/>
<path d="M8084 1895 c-17 -13 -16 -14 16 -3 43 14 49 18 24 18 -11 0 -29 -7
-40 -15z"/>
<path d="M8145 1873 c-11 -3 -24 -10 -30 -15 -12 -13 35 0 50 13 5 5 7 8 5 8
-3 -1 -14 -3 -25 -6z"/>
<path d="M8079 1868 c-6 -21 -5 -37 2 -32 5 3 7 9 4 14 -3 4 1 11 7 13 10 4
10 6 1 6 -7 1 -13 0 -14 -1z"/>
<path d="M6415 1710 c3 -5 8 -10 11 -10 2 0 4 5 4 10 0 6 -5 10 -11 10 -5 0
-7 -4 -4 -10z"/>
<path d="M6510 1681 c0 -5 5 -13 10 -16 6 -3 10 -2 10 4 0 5 -4 13 -10 16 -5
3 -10 2 -10 -4z"/>
<path d="M6152 1671 c-11 -7 -11 -9 0 -14 9 -3 15 1 15 9 0 8 -1 14 -1 14 -1
0 -7 -4 -14 -9z"/>
<path d="M6547 1655 c-4 -8 -2 -17 3 -20 6 -4 10 3 10 14 0 25 -6 27 -13 6z"/>
<path d="M6440 1646 c0 -8 5 -18 10 -21 6 -3 10 1 10 9 0 19 16 21 23 4 3 -8
6 -6 6 5 1 12 -7 17 -24 17 -15 0 -25 -6 -25 -14z"/>
<path d="M6576 1651 c-4 -7 -5 -15 -2 -18 9 -9 19 4 14 18 -4 11 -6 11 -12 0z"/>
<path d="M6321 1646 c12 -10 79 -16 79 -6 0 5 -19 10 -42 10 -23 0 -39 -2 -37
-4z"/>
<path d="M7845 1700 c-3 -6 1 -7 9 -4 18 7 21 14 7 14 -6 0 -13 -4 -16 -10z"/>
<path d="M7817 1693 c-4 -3 -7 -11 -7 -17 0 -6 5 -5 12 2 6 6 9 14 7 17 -3 3
-9 2 -12 -2z"/>
<path d="M7998 1693 c7 -3 16 -2 19 1 4 3 -2 6 -13 5 -11 0 -14 -3 -6 -6z"/>
<path d="M7938 1663 c6 -2 18 -2 25 0 6 3 1 5 -13 5 -14 0 -19 -2 -12 -5z"/>
<path d="M7790 1650 c-8 -5 -12 -12 -9 -15 4 -3 12 1 19 10 14 17 11 19 -10 5z"/>
<path d="M7900 1650 c0 -5 5 -10 11 -10 5 0 7 5 4 10 -3 6 -8 10 -11 10 -2 0
-4 -4 -4 -10z"/>
<path d="M7670 1620 c-6 -11 -9 -20 -8 -20 2 0 11 9 21 20 9 11 13 20 7 20 -5
0 -14 -9 -20 -20z"/>
<path d="M7625 1620 c-3 -5 1 -10 10 -10 9 0 13 5 10 10 -3 6 -8 10 -10 10 -2
0 -7 -4 -10 -10z"/>
<path d="M7719 1603 c-13 -16 -12 -17 4 -4 16 13 21 21 13 21 -2 0 -10 -8 -17
-17z"/>
<path d="M7830 1610 c0 -5 5 -10 11 -10 5 0 7 5 4 10 -3 6 -8 10 -11 10 -2 0
-4 -4 -4 -10z"/>
<path d="M7556 1585 c-3 -8 -1 -15 4 -15 6 0 10 7 10 15 0 8 -2 15 -4 15 -2 0
-6 -7 -10 -15z"/>
<path d="M7595 1569 c-4 -6 -5 -12 -2 -15 2 -3 7 2 10 11 7 17 1 20 -8 4z"/>
<path d="M7620 1570 c0 -5 5 -10 10 -10 6 0 10 5 10 10 0 6 -4 10 -10 10 -5 0
-10 -4 -10 -10z"/>
<path d="M7890 1576 c0 -2 7 -6 15 -10 8 -3 15 -1 15 4 0 6 -7 10 -15 10 -8 0
-15 -2 -15 -4z"/>
<path d="M7794 1526 c5 -14 3 -17 -11 -12 -15 6 -16 5 -5 -5 17 -18 35 1 21
21 -9 12 -10 12 -5 -4z"/>
<path d="M7826 1522 c-3 -5 1 -9 9 -9 8 0 12 4 9 9 -3 4 -7 8 -9 8 -2 0 -6 -4
-9 -8z"/>
<path d="M7725 1500 c-3 -6 1 -7 9 -4 18 7 21 14 7 14 -6 0 -13 -4 -16 -10z"/>
<path d="M7644 1466 c-10 -8 -16 -18 -11 -22 4 -4 7 -2 7 4 0 7 7 12 15 12 8
0 15 5 15 10 0 13 -3 13 -26 -4z"/>
<path d="M7458 1463 c7 -3 16 -2 19 1 4 3 -2 6 -13 5 -11 0 -14 -3 -6 -6z"/>
<path d="M7285 1451 c-6 -11 13 -26 22 -17 4 3 0 6 -8 6 -11 0 -11 2 1 10 9 6
10 10 3 10 -6 0 -14 -4 -18 -9z"/>
<path d="M7200 1430 c-13 -8 -12 -10 3 -10 9 0 17 5 17 10 0 12 -1 12 -20 0z"/>
<path d="M7090 1420 l-35 -7 38 -2 c20 0 37 4 37 9 0 6 -1 9 -2 9 -2 -1 -19
-5 -38 -9z"/>
<path d="M7365 1420 c-3 -6 1 -7 9 -4 18 7 21 14 7 14 -6 0 -13 -4 -16 -10z"/>
<path d="M7493 1400 c1 -11 5 -20 9 -20 11 0 10 28 -1 35 -6 3 -9 -4 -8 -15z"/>
<path d="M7540 1398 c-16 -7 -20 -12 -12 -15 8 -3 21 2 30 11 19 18 17 19 -18
4z"/>
<path d="M7080 1390 c-13 -8 -12 -10 3 -10 9 0 17 5 17 10 0 12 -1 12 -20 0z"/>
<path d="M7356 1337 c3 -10 9 -15 12 -12 3 3 0 11 -7 18 -10 9 -11 8 -5 -6z"/>
<path d="M7207 1279 c7 -7 15 -10 18 -7 3 3 -2 9 -12 12 -14 6 -15 5 -6 -5z"/>
<path d="M2135 1561 c45 -13 119 -21 109 -11 -5 4 -38 10 -74 13 -44 4 -55 3
-35 -2z"/>
<path d="M2270 1540 c8 -5 29 -9 45 -9 29 1 29 1 5 9 -14 4 -34 8 -45 9 -16 1
-17 -1 -5 -9z"/>
<path d="M2358 1523 c7 -3 16 -2 19 1 4 3 -2 6 -13 5 -11 0 -14 -3 -6 -6z"/>
<path d="M2397 1519 c8 -7 150 -26 263 -34 51 -4 52 -4 20 6 -63 19 -297 42
-283 28z"/>
<path d="M2746 1481 c-5 -8 48 -18 144 -26 43 -4 44 -4 10 5 -19 5 -57 12 -85
15 -27 4 -53 9 -57 11 -4 2 -9 0 -12 -5z"/>
<path d="M2950 1450 c0 -5 7 -10 15 -10 8 0 15 5 15 10 0 6 -7 10 -15 10 -8 0
-15 -4 -15 -10z"/>
<path d="M2996 1438 c3 -5 10 -6 15 -3 13 9 11 12 -6 12 -8 0 -12 -4 -9 -9z"/>
<path d="M3030 1440 c0 -5 6 -10 14 -10 7 0 75 -7 150 -16 76 -9 140 -14 142
-11 3 2 -39 10 -92 17 -96 12 -119 15 -181 25 -20 4 -33 2 -33 -5z"/>
<path d="M3368 1393 c7 -3 16 -2 19 1 4 3 -2 6 -13 5 -11 0 -14 -3 -6 -6z"/>
<path d="M3480 1369 c0 -5 5 -7 10 -4 6 3 10 8 10 11 0 2 -4 4 -10 4 -5 0 -10
-5 -10 -11z"/>
<path d="M3535 1365 c6 -2 64 -11 130 -20 66 -8 132 -18 148 -21 15 -3 27 -1
27 4 0 5 -30 13 -67 17 -38 4 -75 8 -83 10 -31 5 -165 15 -155 10z"/>
<path d="M3850 1329 c0 -5 3 -9 8 -10 4 0 27 -3 52 -6 25 -3 41 -2 37 3 -4 4
-13 9 -20 10 -7 1 -27 4 -44 7 -18 3 -33 1 -33 -4z"/>
<path d="M4008 1313 c7 -3 16 -2 19 1 4 3 -2 6 -13 5 -11 0 -14 -3 -6 -6z"/>
<path d="M5323 1113 c9 -2 23 -2 30 0 6 3 -1 5 -18 5 -16 0 -22 -2 -12 -5z"/>
<path d="M5398 1103 c6 -2 18 -2 25 0 6 3 1 5 -13 5 -14 0 -19 -2 -12 -5z"/>
<path d="M5530 1080 c52 -10 190 -33 305 -50 116 -17 244 -38 285 -46 83 -16
111 -17 65 -3 -47 14 -607 105 -695 113 -38 4 -26 -1 40 -14z"/>
<path d="M2925 1990 c-19 -8 -19 -9 3 -9 12 -1 22 4 22 9 0 6 -1 10 -2 9 -2 0
-12 -4 -23 -9z"/>
<path d="M2805 1970 c11 -5 29 -9 40 -9 l20 0 -20 9 c-11 5 -29 9 -40 9 l-20
0 20 -9z"/>
<path d="M2768 1953 c6 -2 18 -2 25 0 6 3 1 5 -13 5 -14 0 -19 -2 -12 -5z"/>
</g>
</svg>
